<svg width="30" height="33" viewBox="0 0 30 33" fill="none" xmlns="http://www.w3.org/2000/svg">
<path d="M3.33333 32.4167C2.41667 32.4167 1.63222 32.0906 0.98 31.4383C0.327778 30.7861 0.00111111 30.0011 0 29.0833V22.75C0 22.3611 0.0694444 21.9722 0.208333 21.5833C0.347222 21.1944 0.555556 20.8472 0.833333 20.5417L3.41667 17.625C3.72222 17.2639 4.11833 17.0767 4.605 17.0633C5.09167 17.05 5.50111 17.2094 5.83333 17.5417C6.13889 17.8472 6.30556 18.2222 6.33333 18.6667C6.36111 19.1111 6.22222 19.5 5.91667 19.8333L3.625 22.4167H26.375L24.1667 19.9167C23.8611 19.5833 23.7222 19.1944 23.75 18.75C23.7778 18.3056 23.9444 17.9306 24.25 17.625C24.5833 17.2917 24.9933 17.1317 25.48 17.145C25.9667 17.1583 26.3622 17.3461 26.6667 17.7083L29.1667 20.5417C29.4444 20.8472 29.6528 21.1944 29.7917 21.5833C29.9306 21.9722 30 22.3611 30 22.75V29.0833C30 30 29.6739 30.785 29.0217 31.4383C28.3694 32.0917 27.5844 32.4178 26.6667 32.4167H3.33333ZM12.6667 19.75L6.875 13.875C6.23611 13.2361 5.91667 12.4444 5.91667 11.5C5.91667 10.5556 6.23611 9.76389 6.875 9.125L15.0417 0.958333C15.6806 0.319445 16.4722 0 17.4167 0C18.3611 0 19.1528 0.319445 19.7917 0.958333L25.6667 6.75C26.3056 7.38889 26.6322 8.17333 26.6467 9.10333C26.6611 10.0333 26.3483 10.8183 25.7083 11.4583L17.375 19.7917C16.7361 20.4306 15.9517 20.7433 15.0217 20.73C14.0917 20.7167 13.3067 20.39 12.6667 19.75ZM23.3333 9.08333L17.4167 3.25L9.16667 11.5L15.0833 17.3333L23.3333 9.08333Z" fill="#3705F2"/>
</svg>
