<svg width="21" height="30" viewBox="0 0 21 30" fill="none" xmlns="http://www.w3.org/2000/svg">
<path d="M17.5672 28.1531C17.5672 28.1531 15.0734 29.5265 13.9472 24.966C13.9472 24.966 19.0956 21.799 19.7391 19.2655C20.3827 16.7319 19.9 13.4382 17.5672 13.0734C15.9004 12.8124 14.269 13.945 14.1081 15.2117C13.9472 16.4785 14.417 18.252 15.6301 18.9488" stroke="#050259" stroke-width="2" stroke-miterlimit="10" stroke-linecap="round"/>
<path d="M12.1774 11.918C12.1774 11.918 9.09477 13.2088 8.63785 15.845C8.15519 18.6319 9.60318 20.1521 10.0858 20.6588" stroke="#050259" stroke-width="2" stroke-miterlimit="10" stroke-linecap="round"/>
<path d="M7.83351 12.7997C7.83351 12.7997 6.38553 10.5436 6.7073 8.24562C7.02907 5.94767 8.2856 2.34366 4.93754 1.70393C2.04157 1.15034 -0.210852 5.2256 1.7198 8.62439C3.65044 12.0232 5.74198 14.1983 5.74198 14.1983" stroke="#050259" stroke-width="2" stroke-miterlimit="10" stroke-linecap="round"/>
<path d="M3.32854 16.6052C3.32854 16.6052 1.4542 18.4433 3.48942 19.6455C4.77652 20.4056 6.54628 20.2789 6.54628 20.2789" stroke="#050259" stroke-width="2" stroke-miterlimit="10" stroke-linecap="round"/>
</svg>
