<svg width="89" height="40" viewBox="0 0 89 40" fill="none" xmlns="http://www.w3.org/2000/svg">
<rect x="0.5" y="0.5" width="88" height="39" rx="19.5" stroke="#050259"/>
<path d="M39.018 17.642H41.034V14.31H42.882V23.718H41.034V19.14H39.018V17.642ZM39.872 20.61L38.976 22.052C37.562 21.59 36.61 20.666 36.05 19.504C35.476 20.778 34.468 21.8 32.97 22.304L32.032 20.834C34.146 20.148 35.07 18.454 35.07 16.83V16.648H32.536V15.178H39.466V16.648H36.96V16.816C36.96 18.342 37.842 19.924 39.872 20.61ZM36.232 25.51H43.176V26.98H34.384V22.934H36.232V25.51ZM48.9849 17.95V18.216C48.9849 20.162 49.6429 22.136 51.4629 23.102L50.4689 24.474C49.3349 23.872 48.5929 22.85 48.1309 21.618C47.6969 22.962 46.9409 24.11 45.7789 24.782L44.7429 23.396C46.5769 22.318 47.2349 20.204 47.2349 18.216V17.95H45.2189V16.466H47.2349V14.73H48.9849V16.466H50.9589V17.95H48.9849ZM51.6869 19.182V14.52H53.4089V26.616H51.6869V20.68H50.2169V19.182H51.6869ZM54.2909 14.296H56.0409V27.19H54.2909V14.296Z" fill="#050259"/>
</svg>
