<svg width="190" height="52" viewBox="0 0 190 52" fill="none" xmlns="http://www.w3.org/2000/svg">
<rect y="0.196289" width="190" height="51.641" rx="10" fill="#2BD9A8"/>
<path d="M68.5917 32.3315V31.0195H63.0237V32.3315H68.5917ZM68.5917 29.4195V28.0115H70.6877V34.0115H60.9277V28.0115H63.0237V29.4195H68.5917ZM62.4317 25.3395C63.5197 25.3395 64.3037 24.6835 64.3037 23.5795C64.3037 22.4755 63.5197 21.8195 62.4317 21.8195C61.3597 21.8195 60.5757 22.4755 60.5757 23.5795C60.5757 24.6835 61.3597 25.3395 62.4317 25.3395ZM68.5757 19.4515H70.6877V27.3715H68.5757V24.4115H66.2397C65.8397 26.0115 64.3357 27.0995 62.4317 27.0995C60.2237 27.0995 58.5597 25.6275 58.5597 23.5795C58.5597 21.5315 60.2237 20.0595 62.4317 20.0595C64.3037 20.0595 65.8077 21.1315 66.2237 22.6995H68.5757V19.4515ZM80.7984 30.8435H86.4304V32.5715H73.0864V30.8435H78.6864V28.6515H74.6224V23.6595H82.8464V22.0755H74.6064V20.3955H84.9264V25.3075H76.7184V26.9555H85.2624V28.6515H80.7984V30.8435ZM99.7252 26.2515V27.9315H89.3572V20.6675H99.6132V22.3795H91.4692V26.2515H99.7252ZM87.8052 30.6995H101.149V32.4275H87.8052V30.6995ZM106.78 29.4515C107.772 29.4515 108.492 28.7795 108.492 27.6435C108.492 26.5395 107.772 25.8515 106.78 25.8515C105.788 25.8515 105.052 26.5395 105.052 27.6595C105.052 28.7795 105.788 29.4515 106.78 29.4515ZM106.78 24.1395C108.908 24.1395 110.492 25.5955 110.492 27.6435C110.492 29.7235 108.908 31.1795 106.78 31.1795C104.636 31.1795 103.036 29.7235 103.036 27.6435C103.036 25.5955 104.636 24.1395 106.78 24.1395ZM107.82 19.7075V21.6275H111.02V23.3075H102.444V21.6275H105.708V19.7075H107.82ZM116.204 25.2115V26.9555H114.092V34.1875H111.98V19.4515H114.092V25.2115H116.204ZM118.059 20.9715H125.131C125.131 25.4835 123.611 29.1635 118.379 31.6915L117.275 30.0275C121.035 28.2195 122.667 25.9155 122.971 22.6515H118.059V20.9715ZM127.387 19.4355H129.515V34.1715H127.387V19.4355Z" fill="#050259"/>
</svg>
