<svg width="101" height="40" viewBox="0 0 101 40" fill="none" xmlns="http://www.w3.org/2000/svg">
<rect width="101" height="40" rx="20" fill="#2BD9A8"/>
<path d="M31.534 17.824H28.86C28.062 19.854 26.256 21.24 23.414 22.038L22.7 20.582C25.64 19.798 27.054 18.412 27.292 16.662H23.4V15.178H29.308C29.308 15.584 29.28 15.976 29.224 16.354H31.534V14.31H33.382V21.73H31.534V20.498H28.692V19.014H31.534V17.824ZM29.126 25.706C30.708 25.706 31.646 25.3 31.646 24.516C31.646 23.732 30.708 23.326 29.126 23.326C27.53 23.326 26.592 23.732 26.592 24.516C26.592 25.3 27.53 25.706 29.126 25.706ZM29.126 21.898C31.744 21.898 33.466 22.906 33.466 24.516C33.466 26.126 31.744 27.134 29.126 27.134C26.494 27.134 24.772 26.126 24.772 24.516C24.772 22.906 26.494 21.898 29.126 21.898ZM39.5689 17.096V17.726C39.5689 19.882 40.1989 22.052 42.0609 23.144L40.9829 24.488C39.8489 23.802 39.1069 22.696 38.6869 21.338C38.2389 22.808 37.4829 24.068 36.3209 24.796L35.2289 23.438C37.1049 22.248 37.7769 19.938 37.7769 17.726V17.096H35.7049V15.598H41.4449V17.096H39.5689ZM42.1869 18.706V14.52H43.9089V26.616H42.1869V20.204H40.5489V18.706H42.1869ZM44.7909 14.296H46.5409V27.19H44.7909V14.296ZM47.9538 28.548L51.4398 14.716H52.7978L49.3258 28.548H47.9538ZM55.0195 20.694L54.3475 19.252C56.9795 18.93 58.3515 17.67 58.5335 16.438H54.8235V14.968H64.3855V16.438H60.7315C60.9135 17.67 62.2715 18.93 64.8895 19.252L64.2315 20.694C61.9775 20.386 60.3955 19.42 59.6255 18.104C58.8555 19.42 57.2735 20.386 55.0195 20.694ZM65.4495 21.436V22.906H60.5075V27.232H58.6595V22.906H53.8015V21.436H65.4495ZM74.5625 19.924L73.6665 21.38C72.2245 20.918 71.2305 20.008 70.6565 18.846C70.0685 20.092 69.0325 21.1 67.5205 21.59L66.6105 20.134C68.7665 19.448 69.6905 17.768 69.6905 16.13V14.898H71.5665V16.13C71.5665 17.74 72.4765 19.28 74.5625 19.924ZM68.5845 24.026V22.556H77.3765V27.218H75.5145V24.026H68.5845ZM75.5145 14.31H77.3765V21.996H75.5145V14.31Z" fill="#050259"/>
</svg>
