<svg width="83" height="40" viewBox="0 0 83 40" fill="none" xmlns="http://www.w3.org/2000/svg">
<rect width="83" height="40" rx="20" fill="#2BD9A8"/>
<path d="M33.872 20.372L33.088 21.926C30.848 21.478 29.196 20.232 28.37 18.594C27.544 20.232 25.906 21.492 23.666 21.926L22.882 20.372C25.78 19.882 27.39 17.838 27.39 15.99V15.066H29.364V15.99C29.364 17.88 30.96 19.882 33.872 20.372ZM22.602 24.138H34.278V25.636H22.602V24.138ZM39.9749 16.844V20.498H42.6069V16.844H39.9749ZM42.2149 24.264H47.1569V25.748H35.4809V24.264H40.3669V21.968H36.4609V20.498H38.1409V16.844H36.3909V15.374H46.1909V16.844H44.4409V20.498H46.1489V21.968H42.2149V24.264ZM49.4378 22.556L48.7518 21.058C51.6778 20.652 53.1198 19.084 53.2458 17.558H49.3678V16.088H53.2738V14.506H55.1218V16.088H59.0278V17.558H55.1498C55.2758 19.084 56.7178 20.652 59.6438 21.058L58.9578 22.556C56.6758 22.22 55.0518 21.184 54.1978 19.798C53.3438 21.184 51.7198 22.22 49.4378 22.556ZM48.3598 24.222H60.0358V25.72H48.3598V24.222Z" fill="#050259"/>
</svg>
