<svg width="248" height="39" viewBox="0 0 248 39" fill="none" xmlns="http://www.w3.org/2000/svg">
<rect width="248" height="39" rx="10" fill="#D9D9D9"/>
<path d="M85.8785 15.6716V21.9856C88.1045 21.9856 89.7145 21.8876 91.5345 21.5656L91.6605 22.5176C89.7425 22.8816 88.0905 22.9656 85.7245 22.9656H84.7305V14.7196H90.5685V15.6716H85.8785ZM95.9305 18.4716V19.4236H93.8585V26.1016H92.7105V13.5156H93.8585V18.4716H95.9305ZM101.529 14.6076V16.8616C101.529 19.1576 103.027 21.4676 104.889 22.3076L104.203 23.2316C102.775 22.5316 101.571 21.0476 100.969 19.2556C100.395 21.1456 99.1914 22.7136 97.7214 23.4696L97.0214 22.5316C98.8694 21.6496 100.395 19.2416 100.395 16.8616V14.6076H101.529ZM106.205 13.5156H107.353V26.1016H106.205V13.5156ZM122.243 13.5296H123.391V20.2636H122.243V13.5296ZM115.299 20.8796H116.433V22.4196H122.257V20.8796H123.391V25.9056H115.299V20.8796ZM116.433 23.3156V24.9816H122.257V23.3156H116.433ZM116.643 14.1176C118.547 14.1176 119.933 15.2936 119.933 17.0016C119.933 18.7376 118.547 19.8996 116.643 19.8996C114.753 19.8996 113.381 18.7376 113.381 17.0016C113.381 15.2936 114.753 14.1176 116.643 14.1176ZM116.643 15.0696C115.397 15.0696 114.501 15.8676 114.501 17.0016C114.501 18.1496 115.397 18.9476 116.643 18.9476C117.917 18.9476 118.813 18.1496 118.813 17.0016C118.813 15.8676 117.917 15.0696 116.643 15.0696ZM132.602 19.4376L132.714 20.3616C131.174 20.6276 129.9 20.6696 127.394 20.6696H126.498V16.9456H130.754V15.2096H126.456V14.2716H131.874V17.8276H127.618V19.7316C129.942 19.7316 131.146 19.6756 132.602 19.4376ZM127.898 22.8536V21.9156H136.312V26.0876H135.15V22.8536H127.898ZM135.15 13.5296H136.312V21.2436H135.15V18.9196H132.7V17.9956H135.15V16.3156H132.7V15.3776H135.15V13.5296ZM142.527 22.3216C143.675 22.3216 144.501 21.5096 144.501 20.3896C144.501 19.2556 143.675 18.4436 142.527 18.4436C141.393 18.4436 140.567 19.2556 140.567 20.3896C140.567 21.5096 141.393 22.3216 142.527 22.3216ZM142.527 17.4916C144.319 17.4916 145.593 18.6956 145.593 20.3896C145.593 22.0976 144.319 23.2736 142.527 23.2736C140.763 23.2736 139.489 22.0976 139.489 20.3896C139.489 18.6956 140.763 17.4916 142.527 17.4916ZM143.087 13.6696V15.5316H146.181V16.4556H138.775V15.5316H141.939V13.6696H143.087ZM150.577 18.6816V19.6476H148.519V26.0736H147.371V13.5296H148.519V18.6816H150.577ZM152.466 14.8736H158.346C158.346 18.4996 156.68 21.6916 152.508 23.7356L151.892 22.7976C155.266 21.1876 156.946 18.7796 157.184 15.7976H152.466V14.8736ZM160.88 13.5156H162.028V26.0736H160.88V13.5156Z" fill="black"/>
</svg>
