<svg width="38" height="36" viewBox="0 0 38 36" fill="none" xmlns="http://www.w3.org/2000/svg">
<path d="M2.52627 32.7161C2.52627 32.7161 -4.06908 17.0216 4.05333 8.95172C16.642 -3.55587 37.1669 0.696709 37.1669 0.696709C37.1669 0.696709 38.2616 29.4642 27.8623 34.217C17.463 38.9699 2.52627 32.7161 2.52627 32.7161Z" fill="#2CD9A8"/>
<path d="M15.2712 6.03735C15.2712 6.03735 14.5405 8.34125 15.8185 8.78902C17.5973 9.4144 20.1972 6.53766 20.1972 6.53766" stroke="#2E3192" stroke-width="1.6" stroke-linecap="round" stroke-linejoin="round"/>
<path d="M24.3021 7.28809C24.3021 7.28809 23.5522 9.64452 24.8494 10.0398C26.9019 10.6651 29.2281 7.78839 29.2281 7.78839" stroke="#2E3192" stroke-width="1.6" stroke-linecap="round" stroke-linejoin="round"/>
<path d="M14.5869 12.0082C14.5869 12.0082 14.5869 14.2596 17.0498 14.7599C19.5128 15.2602 23.8915 13.5091 23.8915 13.5091C23.8915 13.5091 23.0705 12.7587 22.7968 11.7581" stroke="#2E3192" stroke-width="1.6" stroke-linecap="round" stroke-linejoin="round"/>
<path d="M25.5337 14.2596C25.5337 14.2596 24.1654 14.0095 23.618 13.259" stroke="#2E3192" stroke-width="1.6" stroke-linecap="round" stroke-linejoin="round"/>
</svg>
