<svg width="248" height="53" viewBox="0 0 248 53" fill="none" xmlns="http://www.w3.org/2000/svg">
<rect width="248" height="53" rx="10" fill="#2BD9A8"/>
<path d="M97.0707 19.64V27.656H94.9587V19.64H97.0707ZM87.1187 23.832C87.1187 24.936 87.9507 25.592 89.0547 25.592C90.1747 25.592 91.0067 24.936 91.0067 23.832C91.0067 22.728 90.1747 22.072 89.0707 22.072C87.9507 22.072 87.1187 22.728 87.1187 23.832ZM93.0707 23.832C93.0707 25.88 91.3587 27.336 89.0547 27.336C86.7827 27.336 85.0547 25.88 85.0547 23.832C85.0547 21.784 86.7827 20.328 89.0547 20.328C91.3587 20.328 93.0707 21.784 93.0707 23.832ZM90.9427 29.992V32.552H93.3427V29.992H90.9427ZM95.4227 32.552H97.3107V34.2H86.9747V32.552H88.8627V29.992H87.1187V28.328H97.1347V29.992H95.4227V32.552ZM116.518 26.76V28.456H110.854V34.376H108.71V28.456H103.206V26.76H112.486C112.854 24.888 112.886 23.448 112.886 22.184H104.726V20.488H114.95V21.816C114.95 23.192 114.95 24.696 114.582 26.76H116.518ZM120.293 22.808V29.048H122.181V22.808H120.293ZM118.325 30.696V21.144H124.133V30.696H118.325ZM128.549 19.624H130.549V34.36H128.549V26.952H127.317V33.704H125.349V19.864H127.317V25.256H128.549V19.624ZM136.884 29.64C137.876 29.64 138.596 28.968 138.596 27.832C138.596 26.728 137.876 26.04 136.884 26.04C135.892 26.04 135.156 26.728 135.156 27.848C135.156 28.968 135.892 29.64 136.884 29.64ZM136.884 24.328C139.012 24.328 140.596 25.784 140.596 27.832C140.596 29.912 139.012 31.368 136.884 31.368C134.74 31.368 133.14 29.912 133.14 27.832C133.14 25.784 134.74 24.328 136.884 24.328ZM137.924 19.896V21.816H141.124V23.496H132.548V21.816H135.812V19.896H137.924ZM146.308 25.4V27.144H144.196V34.376H142.084V19.64H144.196V25.4H146.308ZM148.163 21.16H155.235C155.235 25.672 153.715 29.352 148.483 31.88L147.379 30.216C151.139 28.408 152.771 26.104 153.075 22.84H148.163V21.16ZM157.491 19.624H159.619V34.36H157.491V19.624Z" fill="#050259"/>
</svg>
