<svg width="28" height="30" viewBox="0 0 28 30" fill="none" xmlns="http://www.w3.org/2000/svg">
<path d="M1 28.5C1 28.5 3.80641 26.2637 4.1524 24.4839C4.35165 23.4571 4.36512 21.4306 4.35434 22.0644C4.35434 22.0644 4.71784 17.2231 5.31154 15.8682C6.03718 14.2158 7.75367 13.3224 9.20091 13.6847C10.1433 13.9208 12.0281 15.101 11.2203 18.4057" stroke="#050259" stroke-width="2" stroke-miterlimit="10" stroke-linecap="round"/>
<path d="M11.417 12.9897C11.7589 12.7406 12.836 12.6226 13.5091 13.0947C14.4044 13.7226 15.9001 15.4186 15.0183 18.427C14.9967 18.5026 14.9631 18.5746 14.9213 18.643C14.7746 18.8767 14.3936 19.3783 13.7783 19.468" stroke="#050259" stroke-width="2" stroke-miterlimit="10" stroke-linecap="round"/>
<path d="M13.3516 11.8648C12.9706 9.67193 10.0088 6.36725 9.73952 4.36084C9.47027 2.35442 10.2901 1.31109 12.0282 1.52825C12.9706 1.64628 15.5568 3.52876 15.9324 7.90156C16.0428 9.18685 15.7479 10.3612 15.8085 11.0528C15.857 11.6134 15.8502 12.8562 16.2016 12.3865C17.2248 11.0186 19.4906 7.00222 21.5867 6.01318C25.087 4.36084 26.8371 5.06898 26.9718 5.89515C27.2383 7.53451 25.5851 9.31195 23.3368 10.8522C19.0288 13.8028 17.6825 17.4615 17.6825 17.4615" stroke="#050259" stroke-width="2" stroke-miterlimit="10" stroke-linecap="round"/>
<path d="M19.6185 19.468C19.6185 19.468 20.1422 22.1826 16.067 22.1826C13.7784 22.1826 12.7014 21.8285 11.759 21.1204" stroke="#050259" stroke-width="2" stroke-miterlimit="10" stroke-linecap="round"/>
</svg>
