<svg width="70" height="40" viewBox="0 0 70 40" fill="none" xmlns="http://www.w3.org/2000/svg">
<rect x="0.5" y="0.5" width="69" height="39" rx="19.5" fill="white"/>
<rect x="0.5" y="0.5" width="69" height="39" rx="19.5" stroke="#050259"/>
<path d="M33.312 14.31V20.764H31.45V14.31H33.312ZM24.576 17.628C24.576 18.552 25.29 19.084 26.242 19.084C27.194 19.084 27.88 18.552 27.88 17.628C27.88 16.718 27.194 16.172 26.242 16.172C25.29 16.172 24.576 16.718 24.576 17.628ZM29.672 17.628C29.672 19.35 28.202 20.582 26.242 20.582C24.268 20.582 22.784 19.35 22.784 17.628C22.784 15.92 24.268 14.688 26.242 14.688C28.202 14.688 29.672 15.92 29.672 17.628ZM26.564 25.622H33.634V27.05H24.73V23.494H31.478V22.71H24.716V21.296H33.312V24.81H26.564V25.622ZM43.0829 20.022L42.1169 21.45C40.7589 21.002 39.8209 20.134 39.2749 19.042C38.7149 20.302 37.7209 21.296 36.2509 21.814L35.2849 20.358C37.4409 19.644 38.3089 17.922 38.3089 16.172V15.01H40.1849V16.326C40.1849 17.88 41.0529 19.392 43.0829 20.022ZM41.4169 25.776C43.0549 25.776 43.9369 25.44 43.9369 24.712C43.9369 23.998 43.0549 23.662 41.4169 23.662C39.7649 23.662 38.8829 23.998 38.8829 24.712C38.8829 25.44 39.7649 25.776 41.4169 25.776ZM41.4169 22.234C44.0909 22.234 45.7709 23.158 45.7709 24.712C45.7709 26.28 44.0909 27.204 41.4169 27.204C38.7289 27.204 37.0489 26.28 37.0489 24.712C37.0489 23.158 38.7289 22.234 41.4169 22.234ZM45.6309 17.306H47.3389V18.832H45.6309V21.94H43.7829V14.324H45.6309V17.306Z" fill="#050259"/>
</svg>
