<svg width="70" height="40" viewBox="0 0 70 40" fill="none" xmlns="http://www.w3.org/2000/svg">
<rect x="0.5" y="0.5" width="69" height="39" rx="19.5" fill="white"/>
<rect x="0.5" y="0.5" width="69" height="39" rx="19.5" stroke="#050259"/>
<path d="M24.52 18.412C24.52 19.49 25.22 20.148 26.158 20.148C27.11 20.148 27.81 19.49 27.81 18.412C27.81 17.348 27.11 16.69 26.158 16.69C25.22 16.69 24.52 17.348 24.52 18.412ZM31.534 17.572H29.462C29.518 17.838 29.56 18.118 29.56 18.412C29.56 18.692 29.532 18.986 29.462 19.238H31.534V17.572ZM31.534 20.708H28.692C28.062 21.366 27.166 21.758 26.158 21.758C24.254 21.758 22.77 20.344 22.77 18.412C22.77 16.494 24.254 15.08 26.158 15.08C27.166 15.08 28.034 15.458 28.664 16.102H31.534V14.31H33.382V23.746H31.534V20.708ZM26.732 25.51H33.676V26.98H24.884V22.822H26.732V25.51ZM38.3929 22.85C39.0789 22.85 39.4989 21.884 39.4989 19.896C39.4989 17.922 39.0789 16.956 38.3929 16.956C37.6789 16.956 37.2729 17.922 37.2729 19.896C37.2729 21.884 37.6789 22.85 38.3929 22.85ZM38.3929 15.22C40.0869 15.22 41.1789 16.984 41.1789 19.896C41.1789 22.822 40.0869 24.586 38.3929 24.586C36.6709 24.586 35.5929 22.822 35.5929 19.896C35.5929 16.984 36.6709 15.22 38.3929 15.22ZM44.7909 14.296H46.5409V27.19H44.7909V20.708H43.7129V26.63H41.9909V14.52H43.7129V19.224H44.7909V14.296Z" fill="#050259"/>
</svg>
