<svg width="310" height="535" viewBox="0 0 310 535" fill="none" xmlns="http://www.w3.org/2000/svg">
<path d="M59.3275 384.741C62.4164 431.007 135.005 475.732 135.005 475.732C145.816 529.709 199.872 549.758 199.872 549.758" stroke="#2BD9A8" stroke-width="8" stroke-linecap="round" stroke-linejoin="round"/>
<path d="M101.027 370.862C101.027 370.862 44.7788 399.146 22.2609 380.115C2.18311 363.15 0.515116 338.413 8.36088 321.511C23.0331 289.895 62.4164 289.124 80.9497 293.751C99.483 298.377 94.8496 298.377 94.8496 298.377C94.8496 298.377 85.6139 363.166 108.75 377.03C139.638 395.537 148.905 375.488 148.905 375.488C148.905 375.488 152.766 390.139 167.438 397.079C174.419 400.38 209.138 404.79 218.405 360.066" stroke="#2BD9A8" stroke-width="8" stroke-linecap="round" stroke-linejoin="round"/>
<path d="M195.238 235.146C195.238 235.146 155.855 255.966 146.588 313.028C140.642 349.594 148.905 375.488 148.905 375.488" stroke="#2BD9A8" stroke-width="8" stroke-linecap="round" stroke-linejoin="round"/>
<path d="M320.338 463.395C320.338 463.395 298.716 458.768 289.449 440.262C280.183 421.755 278.638 414.044 278.638 414.044C278.638 414.044 267.827 427.924 261.649 427.924" stroke="#2BD9A8" stroke-width="8" stroke-linecap="round" stroke-linejoin="round"/>
<path d="M222.266 222.038C228.444 222.038 304.415 246.729 309.527 310.715C314.33 370.677 278.638 414.044 278.638 414.044" stroke="#2BD9A8" stroke-width="8" stroke-linecap="round" stroke-linejoin="round"/>
<path d="M133.306 222.037C133.306 222.037 128.071 214.326 126.526 172.686C124.982 131.046 163.593 92.4908 163.593 92.4908C163.593 92.4908 197.57 26.1754 138.882 7.66874C80.1929 -10.8379 24.5775 43.1398 18.3998 114.082C12.222 185.024 59.3275 291.684 59.3275 291.684L97.1663 294.522" fill="#2BD9A8"/>
<path d="M133.306 222.037C133.306 222.037 128.071 214.326 126.526 172.686C124.982 131.046 163.593 92.4908 163.593 92.4908C163.593 92.4908 197.57 26.1754 138.882 7.66874C80.1929 -10.8379 24.5775 43.1398 18.3998 114.082C12.222 185.024 59.3275 291.684 59.3275 291.684L97.1663 294.522" stroke="#2BD9A8" stroke-width="8" stroke-linecap="round" stroke-linejoin="round"/>
<path d="M220.799 221.158C220.799 221.158 204.443 202.837 184.443 201.217C155.871 198.904 114.171 231.291 98.7262 296.064" stroke="#2BD9A8" stroke-width="8" stroke-linecap="round" stroke-linejoin="round"/>
<path d="M57.0108 63.189C57.0108 63.189 52.8871 77.3928 60.0997 80.1534C70.1385 84.0089 84.8107 66.2734 84.8107 66.2734" stroke="white" stroke-width="4" stroke-linecap="round" stroke-linejoin="round"/>
<path d="M107.977 70.8999C107.977 70.8999 103.746 85.4276 111.066 87.8643C122.65 91.7199 135.777 73.9843 135.777 73.9843" stroke="white" stroke-width="4" stroke-linecap="round" stroke-linejoin="round"/>
<path d="M53.1497 93.2615C53.1497 93.2615 53.1497 107.141 67.0497 110.226C80.9497 113.31 105.661 102.515 105.661 102.515C105.661 102.515 101.027 97.8881 99.483 91.7192" stroke="white" stroke-width="4" stroke-linecap="round" stroke-linejoin="round"/>
<path d="M114.927 107.142C114.927 107.142 107.205 105.6 104.116 100.973" stroke="white" stroke-width="4" stroke-linecap="round" stroke-linejoin="round"/>
</svg>
