<svg width="358" height="518" viewBox="0 0 358 518" fill="none" xmlns="http://www.w3.org/2000/svg">
<g filter="url(#filter0_d_71_14929)">
<rect x="9" y="9" width="340" height="240" rx="22" fill="white"/>
<path d="M286.633 43.98H300.633V29.98H286.633V43.98ZM304.469 43.196C302.831 43.196 301.725 42.58 300.997 41.754L301.963 40.452C302.579 41.054 303.335 41.516 304.273 41.516C305.323 41.516 306.037 40.998 306.037 40.06C306.037 39.052 305.435 38.408 303.181 38.408V36.938C305.085 36.938 305.701 36.28 305.701 35.356C305.701 34.544 305.197 34.068 304.315 34.068C303.573 34.068 302.971 34.404 302.355 34.978L301.305 33.718C302.201 32.934 303.195 32.444 304.413 32.444C306.415 32.444 307.773 33.438 307.773 35.202C307.773 36.322 307.143 37.134 306.051 37.568V37.638C307.213 37.96 308.109 38.828 308.109 40.186C308.109 42.09 306.443 43.196 304.469 43.196ZM313.007 43.196C310.893 43.196 309.493 41.348 309.493 37.778C309.493 34.194 310.893 32.444 313.007 32.444C315.121 32.444 316.507 34.208 316.507 37.778C316.507 41.348 315.121 43.196 313.007 43.196ZM313.007 41.586C313.903 41.586 314.561 40.69 314.561 37.778C314.561 34.88 313.903 34.04 313.007 34.04C312.111 34.04 311.439 34.88 311.439 37.778C311.439 40.69 312.111 41.586 313.007 41.586ZM328.419 31.31V38.324H326.571V31.31H328.419ZM319.711 34.978C319.711 35.944 320.439 36.518 321.405 36.518C322.385 36.518 323.113 35.944 323.113 34.978C323.113 34.012 322.385 33.438 321.419 33.438C320.439 33.438 319.711 34.012 319.711 34.978ZM324.919 34.978C324.919 36.77 323.421 38.044 321.405 38.044C319.417 38.044 317.905 36.77 317.905 34.978C317.905 33.186 319.417 31.912 321.405 31.912C323.421 31.912 324.919 33.186 324.919 34.978ZM323.057 40.368V42.608H325.157V40.368H323.057ZM326.977 42.608H328.629V44.05H319.585V42.608H321.237V40.368H319.711V38.912H328.475V40.368H326.977V42.608Z" fill="black"/>
<path d="M47.56 38.12L46.424 39.608C45.448 39.016 44.824 38.088 44.456 37C44.104 38.136 43.496 39.128 42.488 39.784C41.48 39.128 40.872 38.104 40.52 36.968C40.152 38.056 39.528 39 38.552 39.608L37.4 38.12C39.112 37.032 39.528 35.08 39.528 33.288V32.456H41.512V33.288C41.512 34.584 41.688 36.072 42.488 37.24C43.288 36.072 43.464 34.616 43.464 33.288V32.456H45.432V33.288C45.432 35.144 45.848 37.064 47.56 38.12ZM42.12 42.36V44.52H48.216V42.36H42.12ZM40.04 46.184V40.696H50.296V46.184H40.04ZM48.184 31.656H50.296V40.04H48.184V36.216H46.52V34.536H48.184V31.656ZM60.7428 36.888L60.9828 38.584C58.5828 39.064 56.3268 39.208 54.2468 39.208H52.9988V32.328H55.1108V37.448C56.8708 37.416 58.7588 37.272 60.7428 36.888ZM56.4868 42.264V44.552H61.9428V42.264H56.4868ZM54.4068 46.2V40.616H64.0068V46.2H54.4068ZM65.9588 34.744V36.472H64.0068V39.928H61.8948V31.64H64.0068V34.744H65.9588ZM75.8135 33.192L75.7975 34.84H67.1255V33.192H70.3895V31.624H72.5175V33.192H75.8135ZM69.8615 38.2C69.8615 39.016 70.5175 39.448 71.4615 39.448C72.3895 39.448 73.0615 39.016 73.0615 38.2C73.0615 37.4 72.3895 36.968 71.4615 36.968C70.5175 36.968 69.8615 37.4 69.8615 38.2ZM75.0775 38.2C75.0775 39.896 73.5735 41.048 71.4615 41.048C69.3495 41.048 67.8455 39.896 67.8455 38.2C67.8455 36.536 69.3495 35.368 71.4615 35.368C73.5735 35.368 75.0775 36.536 75.0775 38.2ZM71.3335 41.848V44.44H79.2535V46.12H69.2215V41.848H71.3335ZM78.7255 36.136H80.6775V37.88H78.7255V42.664H76.6135V31.64H78.7255V36.136ZM84.2763 38.856V41.432C85.8123 41.416 86.9643 41.352 88.2923 41.144L88.4683 42.824C86.8043 43.096 85.3963 43.128 83.2843 43.128H82.2763V33.256H87.7323V34.936H84.2763V37.224H87.1723V38.856H84.2763ZM89.4443 37V31.912H91.4123V45.72H89.4443V38.712H87.8443V37H89.4443ZM92.5003 31.624H94.5003V46.36H92.5003V31.624ZM111.66 41.368L109.548 41.128C110.108 38.344 110.14 36.296 110.14 34.584H101.548V32.904H112.252V34.312C112.252 36.152 112.252 38.232 111.66 41.368ZM107.02 42.904H113.532V44.6H100.204V42.904H104.908V37.832H107.02V42.904ZM119.307 38.056V36.264H117.403V38.056H119.307ZM121.259 32.584V39.704H115.419V32.584H117.403V34.648H119.307V32.584H121.259ZM117.323 42.872V41.192H127.467V46.392H125.355V42.872H117.323ZM125.467 31.64H127.467V40.504H125.467V36.936H124.315V40.456H122.347V31.896H124.315V35.24H125.467V31.64ZM138.298 32.728V34.312H129.61V32.728H132.89V31.528H135.018V32.728H138.298ZM132.362 37.08C132.362 37.688 132.986 37.992 133.962 37.992C134.938 37.992 135.562 37.688 135.562 37.08C135.562 36.456 134.938 36.152 133.962 36.152C132.986 36.152 132.362 36.456 132.362 37.08ZM137.578 37.08C137.578 38.552 136.154 39.48 133.962 39.48C131.786 39.48 130.346 38.552 130.346 37.08C130.346 35.592 131.786 34.664 133.962 34.664C136.154 34.664 137.578 35.592 137.578 37.08ZM133.61 43.912V44.728H141.658V46.264H131.514V42.472H139.146V41.704H131.498V40.168H141.226V43.912H133.61ZM141.226 34.76H143.178V36.488H141.226V39.592H139.114V31.624H141.226V34.76ZM144.696 33.144H148.68C148.68 37.208 148.312 40.376 145.688 43.288L144.04 42.088C145.992 39.928 146.568 37.8 146.68 34.84H144.696V33.144ZM149.192 33.144H152.744C152.744 37.4 152.408 41.032 149.832 44.216L148.168 43.048C150.12 40.584 150.648 38.12 150.76 34.84H149.192V33.144ZM157.96 37.4V39.144H156.056V46.36H153.928V31.624H156.056V37.4H157.96ZM168.064 36.792V33.976H165.184V36.792H168.064ZM170.144 32.328V38.456H163.12V32.328H170.144ZM166.672 43.608V44.568H174.72V46.2H164.576V42.088H172.208V41.208H164.56V39.576H174.288V43.608H166.672ZM174.288 34.472H176.224V36.2H174.288V39H172.176V31.64H174.288V34.472ZM177.759 33.144H181.743C181.743 37.208 181.375 40.376 178.751 43.288L177.103 42.088C179.055 39.928 179.631 37.8 179.743 34.84H177.759V33.144ZM182.255 33.144H185.807C185.807 37.4 185.471 41.032 182.895 44.216L181.231 43.048C183.183 40.584 183.711 38.12 183.823 34.84H182.255V33.144ZM191.023 37.4V39.144H189.119V46.36H186.991V31.624H189.119V37.4H191.023Z" fill="black"/>
<path d="M46.312 60.744V61.536H38.932V56.628H46.18V57.42H39.904V58.668H45.928V59.424H39.904V60.744H46.312ZM47.392 62.64V63.444H43V66.888H42.016V63.444H37.624V62.64H47.392ZM52.3591 62.22V64.776H54.6991V62.22H52.3591ZM52.1911 57.912V61.428H54.8671V57.912H52.1911ZM55.6831 64.776H58.4311V65.58H48.6631V64.776H51.3751V62.22H49.5631V61.428H51.2071V57.912H49.5391V57.12H57.5191V57.912H55.8511V61.428H57.5071V62.22H55.6831V64.776ZM60.2901 57.276H65.2101C65.2101 60.336 63.8061 63.108 60.3261 64.848L59.7861 64.08C62.5341 62.7 64.0101 60.636 64.2381 58.092H60.2901V57.276ZM69.7221 60.492V61.308H67.9941V66.888H67.0101V56.124H67.9941V60.492H69.7221ZM74.3368 60.48L73.9768 59.7C75.8728 59.508 77.5888 58.596 77.6728 57.408H74.3368V56.616H82.2928V57.408H78.9448C79.0288 58.596 80.7568 59.508 82.6408 59.7L82.2928 60.48C80.5168 60.276 78.9088 59.496 78.3088 58.32C77.7088 59.496 76.1008 60.276 74.3368 60.48ZM78.2968 66.12C79.9888 66.12 80.9848 65.724 80.9848 65.016C80.9848 64.32 79.9888 63.924 78.2968 63.924C76.5928 63.924 75.6088 64.32 75.6088 65.016C75.6088 65.724 76.5928 66.12 78.2968 66.12ZM78.2968 63.168C80.6008 63.168 81.9808 63.828 81.9808 65.016C81.9808 66.216 80.6008 66.876 78.2968 66.876C75.9928 66.876 74.6128 66.216 74.6128 65.016C74.6128 63.828 75.9928 63.168 78.2968 63.168ZM78.7888 61.488H83.1688V62.28H73.4368V61.488H77.8048V59.94H78.7888V61.488ZM88.1718 62.712V64.752H90.6318V62.712H88.1718ZM91.6038 64.752H94.2438V65.556H84.4638V64.752H87.1998V62.712H85.6878V59.388H92.0718V57.72H85.6638V56.916H93.0318V60.18H86.6598V61.908H93.2838V62.712H91.6038V64.752ZM99.5589 61.572V63.672C100.591 63.624 101.635 63.564 102.595 63.444L102.679 64.164C100.327 64.524 97.7469 64.572 95.7069 64.572L95.5869 63.744C96.5109 63.744 97.5309 63.744 98.5749 63.708V61.572H96.3789V57.132H101.827V57.948H97.3509V60.768H101.875V61.572H99.5589ZM103.303 56.112H104.287V66.912H103.303V56.112ZM109.482 57.552C108.45 57.552 107.682 58.26 107.682 59.244C107.682 60.24 108.45 60.96 109.482 60.96C110.538 60.96 111.306 60.24 111.306 59.244C111.306 58.26 110.538 57.552 109.482 57.552ZM114.426 59.628H112.218C112.038 60.912 110.946 61.776 109.482 61.776C107.898 61.776 106.734 60.744 106.734 59.244C106.734 57.768 107.898 56.736 109.482 56.736C110.922 56.736 112.014 57.576 112.206 58.824H114.426V56.136H115.422V62.256H114.426V59.628ZM114.246 62.676V63.312C114.246 64.428 115.038 65.556 116.418 66.024L115.926 66.756C114.882 66.36 114.114 65.628 113.754 64.716C113.418 65.592 112.77 66.42 111.774 66.852C110.742 66.444 110.094 65.652 109.77 64.752C109.386 65.616 108.654 66.36 107.646 66.756L107.154 66.024C108.51 65.52 109.314 64.356 109.314 63.312V62.676H110.262V63.312C110.262 64.272 110.754 65.304 111.762 65.892C112.782 65.244 113.286 64.152 113.286 63.312V62.676H114.246ZM126.773 59.484L126.413 60.276C124.745 60.012 123.149 59.172 122.465 57.972C121.793 59.172 120.185 60.012 118.505 60.276L118.145 59.484C120.077 59.244 121.961 58.092 121.961 56.724V56.244H122.969V56.724C122.969 58.056 124.865 59.244 126.773 59.484ZM125.081 65.952V64.584H119.789V65.952H125.081ZM125.081 63.828V62.568H126.053V66.744H118.817V62.568H119.789V63.828H125.081ZM117.581 61.032H127.325V61.824H117.581V61.032ZM130.288 57.168V63.264C131.908 63.264 133.576 63.12 135.364 62.76L135.472 63.6C133.6 63.984 131.908 64.104 130.192 64.104H129.304V57.168H130.288ZM136.468 56.124H137.452V66.876H136.468V56.124ZM141.111 57.972V63.384C143.019 63.384 144.399 63.3 145.959 63.024L146.067 63.84C144.423 64.152 143.007 64.224 140.979 64.224H140.127V57.156H145.131V57.972H141.111ZM149.727 60.372V61.188H147.951V66.912H146.967V56.124H147.951V60.372H149.727ZM151.634 63.348L151.49 58.26L151.454 57.012H152.57L152.534 58.26L152.39 63.348H151.634ZM152.006 66.156C151.574 66.156 151.214 65.82 151.214 65.328C151.214 64.824 151.574 64.476 152.006 64.476C152.45 64.476 152.798 64.824 152.798 65.328C152.798 65.82 152.45 66.156 152.006 66.156Z" fill="black"/>
<path d="M38.148 229V227.334H40.374V220.782H38.498V219.508C39.534 219.312 40.248 219.046 40.906 218.626H42.432V227.334H44.378V229H38.148ZM49.3741 229.196C47.2601 229.196 45.8601 227.348 45.8601 223.778C45.8601 220.194 47.2601 218.444 49.3741 218.444C51.4881 218.444 52.8741 220.208 52.8741 223.778C52.8741 227.348 51.4881 229.196 49.3741 229.196ZM49.3741 227.586C50.2701 227.586 50.9281 226.69 50.9281 223.778C50.9281 220.88 50.2701 220.04 49.3741 220.04C48.4781 220.04 47.8061 220.88 47.8061 223.778C47.8061 226.69 48.4781 227.586 49.3741 227.586ZM55.9383 221.902C55.9383 223.12 56.5123 223.694 57.4083 223.694C57.9823 223.694 58.6403 223.372 59.1163 222.574C58.9343 220.698 58.2203 219.998 57.3383 219.998C56.5683 219.998 55.9383 220.628 55.9383 221.902ZM57.0583 229.196C55.7703 229.196 54.8323 228.65 54.2163 228.02L55.3083 226.774C55.6863 227.194 56.3163 227.516 56.9323 227.516C58.0943 227.516 59.0463 226.634 59.1443 224.044C58.5983 224.744 57.7163 225.164 57.0163 225.164C55.2943 225.164 54.0483 224.1 54.0483 221.902C54.0483 219.774 55.5323 218.444 57.3103 218.444C59.2703 218.444 61.0343 219.984 61.0343 223.582C61.0343 227.502 59.1163 229.196 57.0583 229.196Z" fill="black"/>
<path d="M76.922 223.092V219.354H73.45V223.092H76.922ZM80.926 220.446H78.042V222H80.926V220.446ZM78.042 222.924V224.002H72.316V218.43H78.042V219.522H80.926V217.492H82.088V224.912H80.926V222.924H78.042ZM77.93 229.126C79.834 229.126 80.982 228.58 80.982 227.656C80.982 226.732 79.834 226.186 77.93 226.186C76.054 226.186 74.906 226.732 74.906 227.656C74.906 228.58 76.054 229.126 77.93 229.126ZM77.93 225.29C80.52 225.29 82.13 226.144 82.13 227.656C82.13 229.154 80.52 230.022 77.93 230.022C75.354 230.022 73.758 229.154 73.758 227.656C73.758 226.144 75.354 225.29 77.93 225.29ZM95.1018 223.54L94.5558 224.422C93.1278 223.974 92.0358 223.05 91.4758 221.86C90.9298 223.176 89.7958 224.184 88.3118 224.66L87.7518 223.764C89.6138 223.19 90.8878 221.734 90.8878 220.068V219.872H88.1018V218.948H90.8878V217.408H92.0358V218.948H94.8078V219.872H92.0358V220.068C92.0358 221.594 93.2538 222.98 95.1018 223.54ZM90.7338 226.41V228.944H96.3618V226.41H90.7338ZM89.6138 229.868V225.5H97.4958V229.868H89.6138ZM99.3578 220.656V221.608H97.4958V224.912H96.3478V217.478H97.4958V220.656H99.3578ZM106.973 224.254H109.829V221.23H106.931C107.043 221.72 107.113 222.252 107.113 222.826C107.113 223.344 107.057 223.82 106.973 224.254ZM103.991 226.186C105.181 226.186 106.035 224.87 106.035 222.826C106.035 220.796 105.181 219.48 103.991 219.48C102.787 219.48 101.947 220.796 101.947 222.826C101.947 224.87 102.787 226.186 103.991 226.186ZM109.829 217.478H110.977V230.064H109.829V225.192H106.693C106.175 226.466 105.195 227.208 103.991 227.208C102.157 227.208 100.855 225.5 100.855 222.826C100.855 220.152 102.157 218.444 103.991 218.444C105.153 218.444 106.077 219.116 106.609 220.292H109.829V217.478Z" fill="black"/>
<path d="M29 98C29 92.4772 33.4772 88 39 88H242V136H39C33.4772 136 29 131.523 29 126V98Z" fill="#2BD9A8"/>
<path d="M29 158C29 152.477 33.4772 148 39 148H105V196H39C33.4772 196 29 191.523 29 186V158Z" fill="#2BD9A8"/>
<rect x="29.2" y="88.7" width="298.6" height="46.6" rx="9.3" stroke="#050259" stroke-width="1.4"/>
<path d="M49.62 114.276L48.036 114.096C48.456 112.008 48.48 110.472 48.48 109.188H42.036V107.928H50.064V108.984C50.064 110.364 50.064 111.924 49.62 114.276ZM46.14 115.428H51.024V116.7H41.028V115.428H44.556V111.624H46.14V115.428ZM55.3551 111.792V110.448H53.9271V111.792H55.3551ZM56.8191 107.688V113.028H52.4391V107.688H53.9271V109.236H55.3551V107.688H56.8191ZM53.8671 115.404V114.144H61.4751V118.044H59.8911V115.404H53.8671ZM59.9751 106.98H61.4751V113.628H59.9751V110.952H59.1111V113.592H57.6351V107.172H59.1111V109.68H59.9751V106.98ZM69.6101 108.144L69.5981 109.38H63.0941V108.144H65.5421V106.968H67.1381V108.144H69.6101ZM65.1461 111.9C65.1461 112.512 65.6381 112.836 66.3461 112.836C67.0421 112.836 67.5461 112.512 67.5461 111.9C67.5461 111.3 67.0421 110.976 66.3461 110.976C65.6381 110.976 65.1461 111.3 65.1461 111.9ZM69.0581 111.9C69.0581 113.172 67.9301 114.036 66.3461 114.036C64.7621 114.036 63.6341 113.172 63.6341 111.9C63.6341 110.652 64.7621 109.776 66.3461 109.776C67.9301 109.776 69.0581 110.652 69.0581 111.9ZM66.2501 114.636V116.58H72.1901V117.84H64.6661V114.636H66.2501ZM71.7941 110.352H73.2581V111.66H71.7941V115.248H70.2101V106.98H71.7941V110.352ZM76.1372 109.284V114.084C77.7092 114.06 79.0172 113.976 80.4452 113.736L80.6012 115.044C78.9332 115.344 77.4212 115.404 75.5012 115.404H74.5652V108H79.7132V109.284H76.1372ZM84.3932 111.06V112.368H82.7852V118.056H81.2012V106.98H82.7852V111.06H84.3932Z" fill="#050259"/>
<path d="M285.732 116C285.888 112.916 286.404 110.948 288.096 108.596H284.1V107.108H290.004V108.188C287.94 110.708 287.664 112.52 287.52 116H285.732ZM294.094 116.168C292.402 116.168 291.13 115.184 291.13 113.792C291.13 112.652 291.826 111.908 292.654 111.476V111.416C291.97 110.924 291.478 110.252 291.478 109.304C291.478 107.876 292.618 106.964 294.154 106.964C295.726 106.964 296.734 107.912 296.734 109.328C296.734 110.204 296.182 110.936 295.594 111.356V111.416C296.41 111.86 297.082 112.58 297.082 113.792C297.082 115.136 295.894 116.168 294.094 116.168ZM294.658 110.924C295.09 110.468 295.294 109.964 295.294 109.436C295.294 108.716 294.862 108.2 294.118 108.2C293.518 108.2 293.038 108.596 293.038 109.304C293.038 110.144 293.722 110.552 294.658 110.924ZM294.142 114.92C294.898 114.92 295.438 114.5 295.438 113.732C295.438 112.808 294.622 112.424 293.47 111.956C292.99 112.34 292.654 112.94 292.654 113.6C292.654 114.404 293.314 114.92 294.142 114.92ZM302.896 112.58C301.624 112.58 300.736 111.536 300.736 109.748C300.736 107.972 301.624 106.952 302.896 106.952C304.168 106.952 305.068 107.972 305.068 109.748C305.068 111.536 304.168 112.58 302.896 112.58ZM302.896 111.584C303.412 111.584 303.82 111.056 303.82 109.748C303.82 108.44 303.412 107.948 302.896 107.948C302.38 107.948 301.984 108.44 301.984 109.748C301.984 111.056 302.38 111.584 302.896 111.584ZM303.196 116.168L308.02 106.952H309.064L304.24 116.168H303.196ZM309.352 116.168C308.092 116.168 307.192 115.112 307.192 113.336C307.192 111.548 308.092 110.528 309.352 110.528C310.612 110.528 311.524 111.548 311.524 113.336C311.524 115.112 310.612 116.168 309.352 116.168ZM309.352 115.16C309.868 115.16 310.276 114.644 310.276 113.336C310.276 112.028 309.868 111.524 309.352 111.524C308.836 111.524 308.44 112.028 308.44 113.336C308.44 114.644 308.836 115.16 309.352 115.16Z" fill="black"/>
<rect x="29.2" y="148.7" width="298.6" height="46.6" rx="9.3" stroke="#050259" stroke-width="1.4"/>
<path d="M49.62 174.276L48.036 174.096C48.456 172.008 48.48 170.472 48.48 169.188H42.036V167.928H50.064V168.984C50.064 170.364 50.064 171.924 49.62 174.276ZM46.14 175.428H51.024V176.7H41.028V175.428H44.556V171.624H46.14V175.428ZM55.3551 171.792V170.448H53.9271V171.792H55.3551ZM56.8191 167.688V173.028H52.4391V167.688H53.9271V169.236H55.3551V167.688H56.8191ZM53.8671 175.404V174.144H61.4751V178.044H59.8911V175.404H53.8671ZM59.9751 166.98H61.4751V173.628H59.9751V170.952H59.1111V173.592H57.6351V167.172H59.1111V169.68H59.9751V166.98ZM67.4449 170.496C67.4449 171.396 68.0689 171.936 68.8969 171.936C69.7129 171.936 70.3489 171.396 70.3489 170.496C70.3489 169.596 69.7129 169.056 68.8969 169.056C68.0689 169.056 67.4449 169.596 67.4449 170.496ZM71.8849 170.496C71.8849 172.116 70.5769 173.304 68.8969 173.304C67.2049 173.304 65.8969 172.116 65.8969 170.496C65.8969 168.864 67.2049 167.688 68.8969 167.688C70.5769 167.688 71.8849 168.864 71.8849 170.496ZM68.9689 174.192V176.58H74.9089V177.84H67.3849V174.192H68.9689ZM74.5129 170.148H75.9769V171.444H74.5129V175.02H72.9289V166.98H74.5129V170.148ZM83.3679 168.144L83.3559 169.38H76.8519V168.144H79.2999V166.968H80.8959V168.144H83.3679ZM78.9039 171.9C78.9039 172.512 79.3959 172.836 80.1039 172.836C80.7999 172.836 81.3039 172.512 81.3039 171.9C81.3039 171.3 80.7999 170.976 80.1039 170.976C79.3959 170.976 78.9039 171.3 78.9039 171.9ZM82.8159 171.9C82.8159 173.172 81.6879 174.036 80.1039 174.036C78.5199 174.036 77.3919 173.172 77.3919 171.9C77.3919 170.652 78.5199 169.776 80.1039 169.776C81.6879 169.776 82.8159 170.652 82.8159 171.9ZM80.0079 174.636V176.58H85.9479V177.84H78.4239V174.636H80.0079ZM85.5519 170.352H87.0159V171.66H85.5519V175.248H83.9679V166.98H85.5519V170.352ZM89.895 169.284V174.084C91.467 174.06 92.775 173.976 94.203 173.736L94.359 175.044C92.691 175.344 91.179 175.404 89.259 175.404H88.323V168H93.471V169.284H89.895ZM98.151 171.06V172.368H96.543V178.056H94.959V166.98H96.543V171.06H98.151Z" fill="#050259"/>
<path d="M284.016 176V174.98C286.428 172.82 287.856 171.152 287.856 169.784C287.856 168.884 287.376 168.344 286.524 168.344C285.876 168.344 285.348 168.764 284.892 169.256L283.932 168.296C284.748 167.42 285.54 166.952 286.752 166.952C288.432 166.952 289.548 168.032 289.548 169.688C289.548 171.296 288.216 173.024 286.596 174.608C287.04 174.56 287.628 174.512 288.048 174.512H289.968V176H284.016ZM291.082 176V174.98C293.494 172.82 294.922 171.152 294.922 169.784C294.922 168.884 294.442 168.344 293.59 168.344C292.942 168.344 292.414 168.764 291.958 169.256L290.998 168.296C291.814 167.42 292.606 166.952 293.818 166.952C295.498 166.952 296.614 168.032 296.614 169.688C296.614 171.296 295.282 173.024 293.662 174.608C294.106 174.56 294.694 174.512 295.114 174.512H297.034V176H291.082ZM302.896 172.58C301.624 172.58 300.736 171.536 300.736 169.748C300.736 167.972 301.624 166.952 302.896 166.952C304.168 166.952 305.068 167.972 305.068 169.748C305.068 171.536 304.168 172.58 302.896 172.58ZM302.896 171.584C303.412 171.584 303.82 171.056 303.82 169.748C303.82 168.44 303.412 167.948 302.896 167.948C302.38 167.948 301.984 168.44 301.984 169.748C301.984 171.056 302.38 171.584 302.896 171.584ZM303.196 176.168L308.02 166.952H309.064L304.24 176.168H303.196ZM309.352 176.168C308.092 176.168 307.192 175.112 307.192 173.336C307.192 171.548 308.092 170.528 309.352 170.528C310.612 170.528 311.524 171.548 311.524 173.336C311.524 175.112 310.612 176.168 309.352 176.168ZM309.352 175.16C309.868 175.16 310.276 174.644 310.276 173.336C310.276 172.028 309.868 171.524 309.352 171.524C308.836 171.524 308.44 172.028 308.44 173.336C308.44 174.644 308.836 175.16 309.352 175.16Z" fill="black"/>
</g>
<g filter="url(#filter1_d_71_14929)">
<rect x="9" y="269" width="340" height="240" rx="22" fill="white"/>
<path d="M270.087 303.949C270.087 303.949 267.25 296.538 270.743 292.727C276.158 286.821 284.986 288.829 284.986 288.829C284.986 288.829 285.457 302.414 280.984 304.658C276.511 306.902 270.087 303.949 270.087 303.949Z" fill="#2CD9A8"/>
<path d="M300.911 291.282H302.773V297.764H300.911V291.282ZM298.643 294.026H301.135V295.51H298.643V294.026ZM296.529 291.758H298.489C298.489 295.146 296.501 297.19 292.707 298.1L292.077 296.63C295.213 295.944 296.529 294.488 296.529 292.696V291.758ZM292.819 291.758H298.083V293.228H292.819V291.758ZM294.205 298.254H302.773V301.838H296.095V303.434H294.233V300.466H300.911V299.71H294.205V298.254ZM294.233 302.664H303.039V304.12H294.233V302.664ZM313.706 291.296H315.582V300.844H313.706V291.296ZM306.902 302.538H315.89V304.022H306.902V302.538ZM306.902 300.046H308.764V303.294H306.902V300.046ZM305.474 297.708H306.608C309.31 297.708 310.892 297.638 312.656 297.302L312.852 298.786C311.032 299.136 309.38 299.206 306.608 299.206H305.474V297.708ZM305.46 292.136H311.424V296.28H307.308V298.128H305.474V294.908H309.59V293.62H305.46V292.136ZM326.585 291.296H328.461V298.338H326.585V291.296ZM319.697 298.94H328.517V300.396H319.697V298.94ZM319.571 302.636H328.643V304.106H319.571V302.636ZM321.223 299.374H323.043V303.252H321.223V299.374ZM325.171 299.374H327.005V303.252H325.171V299.374ZM321.405 291.884C323.421 291.884 324.919 293.172 324.919 294.964C324.919 296.77 323.421 298.058 321.405 298.058C319.389 298.058 317.877 296.77 317.877 294.964C317.877 293.172 319.389 291.884 321.405 291.884ZM321.405 293.41C320.425 293.41 319.697 293.998 319.697 294.964C319.697 295.93 320.425 296.518 321.405 296.518C322.385 296.518 323.099 295.93 323.099 294.964C323.099 293.998 322.385 293.41 321.405 293.41Z" fill="black"/>
<path d="M37.64 300.392H51.048V302.12H37.64V300.392ZM43.272 301H45.384V306.44H43.272V301ZM39.304 297.64H49.656V299.32H39.304V297.64ZM39.304 292.2H49.496V293.864H41.4V298.04H39.304V292.2ZM40.808 294.936H49.176V296.552H40.808V294.936ZM55.6548 299.672H57.7828V303.656H55.6548V299.672ZM60.3108 299.688H62.4228V303.672H60.3108V299.688ZM52.3748 303.08H65.7828V304.808H52.3748V303.08ZM53.3988 292.776H64.6788V294.472H53.3988V292.776ZM53.4628 298.632H64.6308V300.312H53.4628V298.632ZM55.4148 294.184H57.5428V298.872H55.4148V294.184ZM60.5508 294.184H62.6628V298.872H60.5508V294.184ZM80.8785 291.608H83.0225V299.192H80.8785V291.608ZM73.1345 299.784H83.0225V303.768H75.2465V305.32H73.1665V302.28H80.9105V301.4H73.1345V299.784ZM73.1665 304.696H83.3905V306.328H73.1665V304.696ZM74.3025 293.016H76.0305V293.592C76.0305 296.216 74.6385 298.552 71.7425 299.368L70.7665 297.704C73.2305 297.016 74.3025 295.288 74.3025 293.592V293.016ZM74.7665 293.016H76.4785V293.592C76.4785 295.16 77.5345 296.776 79.9505 297.432L78.9745 299.064C76.1265 298.296 74.7665 296.072 74.7665 293.592V293.016ZM71.3265 292.28H79.3905V293.96H71.3265V292.28ZM85.4213 298.92H98.8293V300.616H85.4213V298.92ZM91.2293 299.992H93.3733V303.112H91.2293V299.992ZM87.0693 292.232H97.1333V297.736H87.0693V292.232ZM95.0373 293.896H89.1493V296.072H95.0373V293.896ZM86.9733 304.472H97.3573V306.168H86.9733V304.472ZM86.9733 301.864H89.0853V305.032H86.9733V301.864Z" fill="black"/>
<path d="M45.016 316.088H46.012V322.22H45.016V316.088ZM45.748 318.572H47.62V319.4H45.748V318.572ZM39.172 322.808H46.012V326.792H39.172V322.808ZM45.04 323.612H40.156V325.976H45.04V323.612ZM38.116 316.628H39.112V320.972H38.116V316.628ZM38.116 320.564H38.968C40.528 320.564 42.148 320.456 43.924 320.096L44.044 320.912C42.208 321.296 40.588 321.404 38.968 321.404H38.116V320.564ZM48.6271 321.788H58.4311V322.604H48.6271V321.788ZM49.8991 325.88H57.3511V326.696H49.8991V325.88ZM49.8991 323.552H50.8951V326.132H49.8991V323.552ZM53.5351 316.448C55.8511 316.448 57.3511 317.264 57.3511 318.62C57.3511 319.964 55.8511 320.78 53.5351 320.78C51.2071 320.78 49.7191 319.964 49.7191 318.62C49.7191 317.264 51.2071 316.448 53.5351 316.448ZM53.5351 317.264C51.8311 317.264 50.7391 317.768 50.7391 318.62C50.7391 319.472 51.8311 319.976 53.5351 319.976C55.2391 319.976 56.3311 319.472 56.3311 318.62C56.3311 317.768 55.2391 317.264 53.5351 317.264ZM70.2577 316.088H71.2537V326.936H70.2577V316.088ZM67.0777 317.252H68.0617C68.0617 320.396 66.6457 323.144 63.0217 324.92L62.4937 324.116C65.6257 322.604 67.0777 320.3 67.0777 317.42V317.252ZM62.9857 317.252H67.5097V318.068H62.9857V317.252ZM80.8168 316.088H81.8128V324.02H80.8168V316.088ZM81.5008 319.376H83.4208V320.204H81.5008V319.376ZM77.8528 316.928H78.9088C78.9088 319.736 76.9408 321.788 73.8328 322.784L73.4008 321.968C76.1368 321.128 77.8528 319.448 77.8528 317.36V316.928ZM73.8448 316.928H78.3568V317.744H73.8448V316.928ZM75.0448 325.88H82.2928V326.696H75.0448V325.88ZM75.0448 323.216H76.0408V326.204H75.0448V323.216ZM84.7278 328.28L84.4758 327.644C85.2198 327.308 85.6758 326.708 85.6758 325.976L85.5558 324.992L86.0838 325.784C85.9398 325.964 85.7478 326.024 85.5318 326.024C85.1118 326.024 84.7398 325.748 84.7398 325.256C84.7398 324.776 85.1118 324.488 85.5558 324.488C86.1318 324.488 86.4798 324.98 86.4798 325.772C86.4798 326.936 85.8198 327.836 84.7278 328.28ZM90.6357 317.024H91.4517V318.968C91.4517 321.464 90.1077 323.78 88.3317 324.68L87.7197 323.864C89.3277 323.096 90.6357 321.02 90.6357 318.968V317.024ZM90.8037 317.024H91.6197V318.968C91.6197 320.948 92.9157 322.94 94.5237 323.684L93.9237 324.476C92.1597 323.612 90.8037 321.38 90.8037 318.968V317.024ZM95.6517 316.076H96.6477V326.948H95.6517V316.076ZM106.235 316.088H107.231V324.02H106.235V316.088ZM106.919 319.376H108.839V320.204H106.919V319.376ZM103.271 316.928H104.327C104.327 319.736 102.359 321.788 99.2508 322.784L98.8188 321.968C101.555 321.128 103.271 319.448 103.271 317.36V316.928ZM99.2628 316.928H103.775V317.744H99.2628V316.928ZM100.463 325.88H107.711V326.696H100.463V325.88ZM100.463 323.216H101.459V326.204H100.463V323.216Z" fill="black"/>
<path d="M40.274 489V478.64H42.374L45.384 484.17L46.434 486.41H46.504C46.392 485.332 46.224 483.946 46.224 482.77V478.64H48.198V489H46.084L43.088 483.456L42.038 481.244H41.968C42.066 482.35 42.234 483.652 42.234 484.856V489H40.274ZM50.7603 489V478.64H52.8603L55.8703 484.17L56.9203 486.41H56.9903C56.8783 485.332 56.7103 483.946 56.7103 482.77V478.64H58.6843V489H56.5703L53.5743 483.456L52.5243 481.244H52.4543C52.5523 482.35 52.7203 483.652 52.7203 484.856V489H50.7603Z" fill="black"/>
<path d="M75.734 479.48H79.388V480.432H75.734V479.48ZM75.734 482H79.416V482.938H75.734V482ZM78.94 477.436H80.102V484.926H78.94V477.436ZM70.274 478.388H76.056V484.016H70.274V478.388ZM74.908 479.326H71.408V483.092H74.908V479.326ZM75.944 485.29C78.548 485.29 80.158 486.172 80.158 487.684C80.158 489.196 78.548 490.064 75.944 490.064C73.326 490.064 71.716 489.196 71.716 487.684C71.716 486.172 73.326 485.29 75.944 485.29ZM75.944 486.214C74.04 486.214 72.878 486.76 72.878 487.684C72.878 488.608 74.04 489.154 75.944 489.154C77.848 489.154 79.01 488.608 79.01 487.684C79.01 486.76 77.848 486.214 75.944 486.214ZM88.8598 479.508H89.8118V480.054C89.8118 482.224 88.3838 483.988 86.2698 484.674L85.7098 483.764C87.5858 483.19 88.8598 481.72 88.8598 480.054V479.508ZM89.0698 479.508H90.0218V480.054C90.0218 481.594 91.2538 482.98 93.1158 483.526L92.5698 484.45C90.4558 483.792 89.0698 482.084 89.0698 480.054V479.508ZM86.0598 478.92H92.8078V479.858H86.0598V478.92ZM88.8598 477.38H90.0218V479.298H88.8598V477.38ZM94.3618 477.436H95.5238V484.926H94.3618V477.436ZM95.2018 480.628H97.3998V481.608H95.2018V480.628ZM87.5718 485.514H95.5238V489.924H87.5718V485.514ZM94.3898 486.438H88.7058V488.986H94.3898V486.438ZM104.287 480.25H108.109V481.216H104.287V480.25ZM104.287 484.254H108.109V485.22H104.287V484.254ZM101.963 478.402C103.797 478.402 105.113 480.124 105.113 482.812C105.113 485.514 103.797 487.236 101.963 487.236C100.115 487.236 98.8127 485.514 98.8127 482.812C98.8127 480.124 100.115 478.402 101.963 478.402ZM101.963 479.452C100.745 479.452 99.9047 480.768 99.9047 482.812C99.9047 484.87 100.745 486.214 101.963 486.214C103.181 486.214 104.021 484.87 104.021 482.812C104.021 480.768 103.181 479.452 101.963 479.452ZM107.857 477.422H109.005V490.106H107.857V477.422Z" fill="black"/>
<rect x="29.2" y="352.7" width="298.6" height="46.6" rx="9.3" fill="white"/>
<rect x="29.2" y="352.7" width="298.6" height="46.6" rx="9.3" stroke="#050259" stroke-width="1.4"/>
<circle cx="55.5" cy="376" r="15" fill="#2BD9A8"/>
<path d="M94.98 377.544H105.036V378.84H94.98V377.544ZM99.204 378H100.788V382.08H99.204V378ZM96.228 375.48H103.992V376.74H96.228V375.48ZM96.228 371.4H103.872V372.648H97.8V375.78H96.228V371.4ZM97.356 373.452H103.632V374.664H97.356V373.452ZM108.491 377.004H110.087V379.992H108.491V377.004ZM111.983 377.016H113.567V380.004H111.983V377.016ZM106.031 379.56H116.087V380.856H106.031V379.56ZM106.799 371.832H115.259V373.104H106.799V371.832ZM106.847 376.224H115.223V377.484H106.847V376.224ZM108.311 372.888H109.907V376.404H108.311V372.888ZM112.163 372.888H113.747V376.404H112.163V372.888ZM126.929 370.956H128.525V378H126.929V370.956ZM128.081 373.788H130.001V375.096H128.081V373.788ZM124.913 378.12C127.205 378.12 128.645 378.852 128.645 380.1C128.645 381.336 127.205 382.068 124.913 382.068C122.621 382.068 121.181 381.336 121.181 380.1C121.181 378.852 122.621 378.12 124.913 378.12ZM124.913 379.32C123.509 379.32 122.765 379.572 122.765 380.1C122.765 380.628 123.509 380.88 124.913 380.88C126.317 380.88 127.061 380.628 127.061 380.1C127.061 379.572 126.317 379.32 124.913 379.32ZM119.777 372.012H126.317V373.248H119.777V372.012ZM123.053 373.62C124.661 373.62 125.777 374.424 125.777 375.612C125.777 376.812 124.661 377.604 123.053 377.604C121.433 377.604 120.317 376.812 120.317 375.612C120.317 374.424 121.433 373.62 123.053 373.62ZM123.053 374.784C122.333 374.784 121.853 375.072 121.853 375.612C121.853 376.152 122.333 376.44 123.053 376.44C123.761 376.44 124.253 376.152 124.253 375.612C124.253 375.072 123.761 374.784 123.053 374.784ZM122.249 370.884H123.845V372.672H122.249V370.884ZM132.052 371.388H139.6V375.324H132.052V371.388ZM138.028 372.636H133.612V374.076H138.028V372.636ZM130.816 376.368H140.86V377.628H130.816V376.368ZM135.028 375.036H136.624V376.728H135.028V375.036ZM131.932 378.432H139.648V382.068H138.052V379.692H131.932V378.432Z" fill="#050259"/>
<rect x="29.2" y="412.7" width="298.6" height="46.6" rx="9.3" fill="white"/>
<rect x="29.2" y="412.7" width="298.6" height="46.6" rx="9.3" stroke="#050259" stroke-width="1.4"/>
<circle cx="55.5" cy="436" r="15" fill="#2BD9A8"/>
<path d="M94.98 437.544H105.036V438.84H94.98V437.544ZM99.204 438H100.788V442.08H99.204V438ZM96.228 435.48H103.992V436.74H96.228V435.48ZM96.228 431.4H103.872V432.648H97.8V435.78H96.228V431.4ZM97.356 433.452H103.632V434.664H97.356V433.452ZM108.491 437.004H110.087V439.992H108.491V437.004ZM111.983 437.016H113.567V440.004H111.983V437.016ZM106.031 439.56H116.087V440.856H106.031V439.56ZM106.799 431.832H115.259V433.104H106.799V431.832ZM106.847 436.224H115.223V437.484H106.847V436.224ZM108.311 432.888H109.907V436.404H108.311V432.888ZM112.163 432.888H113.747V436.404H112.163V432.888ZM126.929 430.956H128.525V438H126.929V430.956ZM128.081 433.788H130.001V435.096H128.081V433.788ZM124.913 438.12C127.205 438.12 128.645 438.852 128.645 440.1C128.645 441.336 127.205 442.068 124.913 442.068C122.621 442.068 121.181 441.336 121.181 440.1C121.181 438.852 122.621 438.12 124.913 438.12ZM124.913 439.32C123.509 439.32 122.765 439.572 122.765 440.1C122.765 440.628 123.509 440.88 124.913 440.88C126.317 440.88 127.061 440.628 127.061 440.1C127.061 439.572 126.317 439.32 124.913 439.32ZM119.777 432.012H126.317V433.248H119.777V432.012ZM123.053 433.62C124.661 433.62 125.777 434.424 125.777 435.612C125.777 436.812 124.661 437.604 123.053 437.604C121.433 437.604 120.317 436.812 120.317 435.612C120.317 434.424 121.433 433.62 123.053 433.62ZM123.053 434.784C122.333 434.784 121.853 435.072 121.853 435.612C121.853 436.152 122.333 436.44 123.053 436.44C123.761 436.44 124.253 436.152 124.253 435.612C124.253 435.072 123.761 434.784 123.053 434.784ZM122.249 430.884H123.845V432.672H122.249V430.884ZM132.052 431.388H139.6V435.324H132.052V431.388ZM138.028 432.636H133.612V434.076H138.028V432.636ZM130.816 436.368H140.86V437.628H130.816V436.368ZM135.028 435.036H136.624V436.728H135.028V435.036ZM131.932 438.432H139.648V442.068H138.052V439.692H131.932V438.432Z" fill="#050259"/>
</g>
<defs>
<filter id="filter0_d_71_14929" x="0" y="0" width="358" height="258" filterUnits="userSpaceOnUse" color-interpolation-filters="sRGB">
<feFlood flood-opacity="0" result="BackgroundImageFix"/>
<feColorMatrix in="SourceAlpha" type="matrix" values="0 0 0 0 0 0 0 0 0 0 0 0 0 0 0 0 0 0 127 0" result="hardAlpha"/>
<feOffset/>
<feGaussianBlur stdDeviation="4.5"/>
<feComposite in2="hardAlpha" operator="out"/>
<feColorMatrix type="matrix" values="0 0 0 0 0 0 0 0 0 0 0 0 0 0 0 0 0 0 0.25 0"/>
<feBlend mode="normal" in2="BackgroundImageFix" result="effect1_dropShadow_71_14929"/>
<feBlend mode="normal" in="SourceGraphic" in2="effect1_dropShadow_71_14929" result="shape"/>
</filter>
<filter id="filter1_d_71_14929" x="0" y="260" width="358" height="258" filterUnits="userSpaceOnUse" color-interpolation-filters="sRGB">
<feFlood flood-opacity="0" result="BackgroundImageFix"/>
<feColorMatrix in="SourceAlpha" type="matrix" values="0 0 0 0 0 0 0 0 0 0 0 0 0 0 0 0 0 0 127 0" result="hardAlpha"/>
<feOffset/>
<feGaussianBlur stdDeviation="4.5"/>
<feComposite in2="hardAlpha" operator="out"/>
<feColorMatrix type="matrix" values="0 0 0 0 0 0 0 0 0 0 0 0 0 0 0 0 0 0 0.25 0"/>
<feBlend mode="normal" in2="BackgroundImageFix" result="effect1_dropShadow_71_14929"/>
<feBlend mode="normal" in="SourceGraphic" in2="effect1_dropShadow_71_14929" result="shape"/>
</filter>
</defs>
</svg>
