<svg width="24" height="24" viewBox="0 0 24 24" fill="none" xmlns="http://www.w3.org/2000/svg">
<path d="M13.2939 2.19015e-06C13.6467 2.19015e-06 13.9623 0.219599 14.0811 0.548396L14.9283 2.89677C15.2319 2.97237 15.4923 3.04797 15.713 3.12716C15.9542 3.21356 16.265 3.34436 16.649 3.52316L18.6218 2.47917C18.7828 2.39386 18.9672 2.36307 19.1472 2.39141C19.3272 2.41975 19.4932 2.50571 19.6202 2.63637L21.3554 4.43035C21.5858 4.66915 21.6506 5.01834 21.521 5.32314L20.5958 7.49151C20.7494 7.77351 20.8718 8.01471 20.9654 8.2163C21.0662 8.4359 21.191 8.7383 21.3398 9.12829L23.4962 10.0523C23.8202 10.1903 24.0206 10.5143 23.999 10.8611L23.8406 13.351C23.8297 13.5128 23.7716 13.6678 23.6735 13.7969C23.5754 13.9259 23.4415 14.0234 23.2886 14.077L21.2462 14.803C21.1874 15.085 21.1262 15.3262 21.0614 15.5302C20.9569 15.8453 20.8375 16.1552 20.7038 16.459L21.7298 18.727C21.8022 18.8863 21.8217 19.0647 21.7854 19.2359C21.7491 19.4071 21.659 19.5623 21.5282 19.6786L19.577 21.4209C19.4485 21.5352 19.2882 21.6075 19.1174 21.6281C18.9467 21.6487 18.7738 21.6166 18.6218 21.5361L16.6106 20.4706C16.296 20.6372 15.9714 20.7842 15.6386 20.9109L14.7603 21.2397L13.9803 23.3997C13.9225 23.5579 13.8182 23.6949 13.6812 23.7928C13.5441 23.8906 13.3807 23.9448 13.2123 23.9481L10.9323 23.9997C10.7595 24.0042 10.5895 23.9551 10.4457 23.859C10.3019 23.763 10.1915 23.6247 10.1295 23.4633L9.21033 21.0309C8.89671 20.9238 8.58619 20.8077 8.27914 20.683C8.028 20.5743 7.78066 20.457 7.53755 20.3314L5.25758 21.3057C5.10735 21.3698 4.94173 21.3889 4.78087 21.3605C4.62002 21.3322 4.47087 21.2577 4.35159 21.1461L2.66441 19.5634C2.5388 19.446 2.45325 19.2922 2.41987 19.1236C2.38649 18.955 2.40697 18.7801 2.47841 18.6238L3.4588 16.4878C3.32841 16.2348 3.20753 15.977 3.0964 15.715C2.96669 15.3943 2.84663 15.0698 2.73641 14.7418L0.588434 14.0878C0.413837 14.0351 0.261551 13.9261 0.155227 13.7779C0.0489026 13.6297 -0.00550949 13.4505 0.000440958 13.2682L0.0844399 10.9631C0.090419 10.8127 0.137403 10.6668 0.220312 10.5411C0.30322 10.4155 0.418898 10.3149 0.554834 10.2503L2.80841 9.16789C2.91281 8.7851 3.004 8.4875 3.0844 8.2703C3.19761 7.9802 3.32333 7.69514 3.4612 7.41591L2.48441 5.35194C2.41028 5.1952 2.38777 5.01899 2.42012 4.84865C2.45246 4.67831 2.53799 4.52261 2.66441 4.40395L4.34919 2.81277C4.46729 2.70138 4.61507 2.62649 4.77474 2.59711C4.9344 2.56773 5.09916 2.58511 5.24918 2.64717L7.52675 3.58796C7.77875 3.41996 8.00674 3.28436 8.21314 3.17516C8.45914 3.04437 8.78793 2.90757 9.20193 2.75997L9.99392 0.550795C10.0525 0.38912 10.1595 0.249457 10.3004 0.150878C10.4413 0.0522986 10.6092 -0.000391496 10.7811 2.19015e-06H13.2939ZM12.0291 8.4227C10.0287 8.4227 8.40754 10.0247 8.40754 12.0023C8.40754 13.9798 10.0287 15.583 12.0291 15.583C14.0283 15.583 15.6495 13.9798 15.6495 12.0023C15.6495 10.0247 14.0295 8.4227 12.0291 8.4227Z" fill="#050259"/>
</svg>
